<svg xmlns="http://www.w3.org/2000/svg" viewBox="0 0 2.197 2.161" shape-rendering="geometricPrecision"><path d="M0.974,2.100L0.965,2.110L0.954,2.119ZM0.983,2.090L0.974,2.100L0.954,2.119ZM0.983,2.090L0.954,2.119L0.943,2.128ZM0.991,2.079L0.983,2.090L0.943,2.128ZM0.991,2.079L0.943,2.128L0.931,2.136ZM0.997,2.069L0.991,2.079L0.931,2.136ZM0.997,2.069L0.931,2.136L0.919,2.143ZM1.003,2.058L0.997,2.069L0.919,2.143ZM1.003,2.058L0.919,2.143L0.915,2.145ZM1.007,2.046L1.003,2.058L0.915,2.145ZM1.007,2.046L0.915,2.145L0.900,2.152ZM1.011,2.034L1.007,2.046L0.900,2.152ZM1.011,2.034L0.900,2.152L0.889,2.155ZM1.014,2.021L1.011,2.034L0.889,2.155ZM1.014,2.021L0.889,2.155L0.876,2.158ZM1.016,2.008L1.014,2.021L0.876,2.158ZM1.016,2.008L0.876,2.158L0.863,2.160ZM1.016,1.997L1.016,2.008L0.863,2.160ZM1.016,1.997L0.863,2.160L0.850,2.161ZM1.016,1.985L1.016,1.997L0.850,2.161ZM1.016,1.985L0.850,2.161L0.836,2.161ZM1.015,1.973L1.016,1.985L0.836,2.161ZM1.015,1.973L0.836,2.161L0.821,2.159ZM1.012,1.960L1.015,1.973L0.821,2.159ZM1.012,1.960L0.821,2.159L0.810,2.157ZM1.008,1.944L1.012,1.960L0.810,2.157ZM1.008,1.944L0.810,2.157L0.798,2.154ZM1.008,1.944L0.798,2.154L0.786,2.150ZM1.008,1.944L0.786,2.150L0.774,2.144ZM1.008,1.944L0.774,2.144L0.763,2.138ZM1.008,1.944L0.763,2.138L0.752,2.130ZM1.008,1.944L0.752,2.130L0.740,2.121ZM1.008,1.944L0.740,2.121L0.730,2.111ZM1.008,1.944L0.730,2.111L0.719,2.099ZM0.964,1.833L1.008,1.944L0.719,2.099ZM0.719,2.099L0.709,2.086L0.964,1.833ZM2.127,0.938L2.115,0.952L2.102,0.964ZM2.127,0.938L2.102,0.964L2.089,0.976ZM2.138,0.923L2.127,0.938L2.089,0.976ZM2.138,0.923L2.089,0.976L2.074,0.987ZM2.149,0.908L2.138,0.923L2.074,0.987ZM2.149,0.908L2.074,0.987L2.059,0.997ZM2.158,0.891L2.149,0.908L2.059,0.997ZM2.158,0.891L2.059,0.997L2.042,1.006ZM2.158,0.891L2.042,1.006L2.025,1.015ZM2.166,0.873L2.158,0.891L2.025,1.015ZM2.166,0.873L2.025,1.015L2.008,1.022ZM2.174,0.853L2.166,0.873L2.008,1.022ZM2.174,0.853L2.008,1.022L1.989,1.030ZM2.180,0.833L2.174,0.853L1.989,1.030ZM2.180,0.833L1.989,1.030L1.965,1.037ZM2.185,0.811L2.180,0.833L1.965,1.037ZM2.185,0.811L1.965,1.037L1.940,1.045ZM2.190,0.788L2.185,0.811L1.940,1.045ZM2.190,0.788L1.940,1.045L1.913,1.051ZM2.190,0.788L1.913,1.051L1.908,1.052ZM1.908,1.052L2.193,0.763L2.190,0.788ZM1.768,1.654L1.752,1.669L1.737,1.684ZM1.782,1.638L1.768,1.654L1.737,1.684ZM1.782,1.638L1.737,1.684L1.720,1.697ZM1.782,1.638L1.720,1.697L1.716,1.701ZM1.716,1.701L1.796,1.620L1.782,1.638ZM1.692,2.090L1.682,2.101L1.672,2.110ZM1.698,2.082L1.692,2.090L1.672,2.110ZM1.698,2.082L1.672,2.110L1.660,2.119ZM1.704,2.074L1.698,2.082L1.660,2.119ZM1.704,2.074L1.660,2.119L1.647,2.126ZM1.709,2.064L1.704,2.074L1.647,2.126ZM1.712,2.055L1.709,2.064L1.647,2.126ZM1.712,2.055L1.647,2.126L1.634,2.133ZM1.715,2.045L1.712,2.055L1.634,2.133ZM1.715,2.045L1.634,2.133L1.620,2.138ZM1.717,2.035L1.715,2.045L1.620,2.138ZM1.717,2.035L1.620,2.138L1.605,2.143ZM1.718,2.024L1.717,2.035L1.605,2.143ZM1.718,2.021L1.718,2.024L1.605,2.143ZM1.718,2.021L1.605,2.143L1.590,2.146ZM1.718,2.021L1.590,2.146L1.575,2.148ZM1.718,2.021L1.575,2.148L1.560,2.149ZM1.718,2.021L1.560,2.149L1.544,2.148ZM1.718,2.021L1.544,2.148L1.529,2.147ZM1.718,2.021L1.529,2.147L1.514,2.144ZM1.718,2.021L1.514,2.144L1.500,2.139ZM1.718,2.021L1.500,2.139L1.489,2.135ZM1.718,2.021L1.489,2.135L1.479,2.130ZM1.718,2.021L1.479,2.130L1.469,2.124ZM1.718,2.021L1.469,2.124L1.459,2.117ZM1.718,2.021L1.459,2.117L1.450,2.109ZM1.718,2.021L1.450,2.109L1.442,2.101ZM1.718,2.021L1.442,2.101L1.434,2.091ZM1.718,2.021L1.434,2.091L1.432,2.088ZM1.432,2.088L1.417,2.102L1.406,2.111ZM1.432,2.088L1.406,2.111L1.394,2.120ZM1.432,2.088L1.394,2.120L1.382,2.127ZM1.432,2.088L1.382,2.127L1.371,2.133ZM1.432,2.088L1.371,2.133L1.359,2.138ZM1.432,2.088L1.359,2.138L1.347,2.143ZM1.432,2.088L1.347,2.143L1.335,2.146ZM1.432,2.088L1.335,2.146L1.323,2.148ZM1.432,2.088L1.323,2.148L1.311,2.150ZM1.432,2.088L1.311,2.150L1.299,2.150ZM1.432,2.088L1.299,2.150L1.288,2.150ZM1.432,2.088L1.288,2.150L1.276,2.148ZM1.716,1.701L1.718,2.021L1.432,2.088ZM1.716,1.701L1.432,2.088L1.276,2.148ZM1.716,1.701L1.276,2.148L1.265,2.146ZM1.796,1.620L1.716,1.701L1.265,2.146ZM1.809,1.602L1.796,1.620L1.265,2.146ZM1.821,1.583L1.809,1.602L1.265,2.146ZM1.821,1.583L1.265,2.146L1.254,2.144ZM1.833,1.563L1.821,1.583L1.254,2.144ZM1.844,1.542L1.833,1.563L1.254,2.144ZM1.844,1.542L1.254,2.144L1.243,2.140ZM1.854,1.519L1.844,1.542L1.243,2.140ZM1.854,1.519L1.243,2.140L1.232,2.135ZM1.864,1.496L1.854,1.519L1.232,2.135ZM1.864,1.496L1.232,2.135L1.222,2.130ZM1.873,1.471L1.864,1.496L1.222,2.130ZM1.873,1.471L1.222,2.130L1.212,2.124ZM1.880,1.446L1.873,1.471L1.212,2.124ZM1.880,1.446L1.212,2.124L1.203,2.117ZM1.888,1.419L1.880,1.446L1.203,2.117ZM1.888,1.419L1.203,2.117L1.194,2.110ZM1.888,1.419L1.194,2.110L1.186,2.102ZM1.894,1.391L1.888,1.419L1.186,2.102ZM1.894,1.391L1.186,2.102L1.178,2.093ZM1.899,1.362L1.894,1.391L1.178,2.093ZM1.899,1.362L1.178,2.093L1.171,2.084ZM1.899,1.362L1.171,2.084L1.164,2.074ZM1.904,1.332L1.899,1.362L1.164,2.074ZM1.904,1.332L1.164,2.074L1.158,2.063ZM1.908,1.300L1.904,1.332L1.158,2.063ZM1.908,1.300L1.158,2.063L1.152,2.052ZM1.908,1.300L1.152,2.052L1.148,2.040ZM1.910,1.267L1.908,1.300L1.148,2.040ZM1.910,1.267L1.148,2.040L1.144,2.028ZM1.910,1.267L1.144,2.028L1.141,2.015ZM1.912,1.233L1.910,1.267L1.141,2.015ZM1.912,1.233L1.141,2.015L1.138,2.002ZM1.912,1.233L1.138,2.002L1.137,1.988ZM1.913,1.197L1.912,1.233L1.137,1.988ZM1.913,1.197L1.137,1.988L1.136,1.973ZM1.913,1.161L1.913,1.197L1.136,1.973ZM1.912,1.122L1.913,1.161L1.136,1.973ZM1.908,1.052L1.912,1.122L1.136,1.973ZM2.195,0.738L2.193,0.763L1.908,1.052ZM1.908,1.052L1.136,1.973L1.132,1.782ZM2.195,0.738L1.908,1.052L1.132,1.782ZM2.195,0.738L1.132,1.782L1.132,1.780ZM2.195,0.738L1.132,1.780L1.129,1.779ZM2.197,0.710L2.195,0.738L1.129,1.779ZM2.197,0.710L1.129,1.779L1.110,1.775ZM2.197,0.681L2.197,0.710L1.110,1.775ZM2.196,0.674L2.197,0.681L1.110,1.775ZM2.196,0.674L1.110,1.775L1.098,1.771ZM2.195,0.666L2.196,0.674L1.098,1.771ZM2.195,0.666L1.098,1.771L1.086,1.767ZM2.193,0.659L2.195,0.666L1.086,1.767ZM2.190,0.652L2.193,0.659L1.086,1.767ZM2.190,0.652L1.086,1.767L1.074,1.761ZM2.190,0.652L1.074,1.761L1.074,1.761ZM2.186,0.644L2.190,0.652L1.074,1.761ZM2.186,0.644L1.074,1.761L1.043,1.787ZM2.186,0.644L1.043,1.787L1.028,1.798ZM2.186,0.644L1.028,1.798L1.013,1.808ZM2.181,0.637L2.186,0.644L1.013,1.808ZM2.181,0.637L1.013,1.808L0.997,1.817ZM2.181,0.637L0.997,1.817L0.982,1.825ZM2.175,0.631L2.181,0.637L0.982,1.825ZM2.175,0.631L0.982,1.825L0.965,1.833ZM2.175,0.631L0.965,1.833L0.964,1.833ZM2.168,0.625L2.175,0.631L0.964,1.833ZM2.168,0.625L0.964,1.833L0.709,2.086ZM2.161,0.619L2.168,0.625L0.709,2.086ZM2.161,0.619L0.709,2.086L0.700,2.072ZM2.154,0.615L2.161,0.619L0.700,2.072ZM2.146,0.611L2.154,0.615L0.700,2.072ZM2.146,0.611L0.700,2.072L0.691,2.055ZM2.137,0.608L2.146,0.611L0.691,2.055ZM2.129,0.605L2.137,0.608L0.691,2.055ZM2.120,0.604L2.129,0.605L0.691,2.055ZM2.120,0.604L0.691,2.055L0.683,2.037ZM2.113,0.604L2.120,0.604L0.683,2.037ZM2.113,0.604L0.683,2.037L0.675,2.018ZM2.113,0.604L0.675,2.018L0.669,1.996ZM2.113,0.604L0.669,1.996L0.667,1.991ZM2.113,0.604L0.667,1.991L0.507,2.138ZM2.113,0.604L0.507,2.138L0.491,2.138ZM2.113,0.604L0.491,2.138L0.474,2.137ZM2.113,0.604L0.474,2.137L0.459,2.135ZM2.113,0.604L0.459,2.135L0.443,2.131ZM2.113,0.604L0.443,2.131L0.428,2.126ZM2.113,0.604L0.428,2.126L0.418,2.121ZM2.113,0.604L0.418,2.121L0.408,2.115ZM1.909,0.604L2.113,0.604L0.408,2.115ZM1.909,0.602L1.909,0.604L0.408,2.115ZM1.909,0.602L0.408,2.115L0.398,2.109ZM1.909,0.602L0.398,2.109L0.389,2.102ZM1.903,0.583L1.909,0.602L0.389,2.102ZM1.903,0.583L0.389,2.102L0.380,2.094ZM1.897,0.567L1.903,0.583L0.380,2.094ZM1.897,0.567L0.380,2.094L0.373,2.086ZM1.897,0.567L0.373,2.086L0.366,2.077ZM1.891,0.551L1.897,0.567L0.366,2.077ZM1.891,0.551L0.366,2.077L0.360,2.067ZM1.884,0.537L1.891,0.551L0.360,2.067ZM1.884,0.537L0.360,2.067L0.355,2.056ZM1.876,0.523L1.884,0.537L0.355,2.056ZM1.868,0.510L1.876,0.523L0.355,2.056ZM1.860,0.499L1.868,0.510L0.355,2.056ZM1.851,0.488L1.860,0.499L0.355,2.056ZM1.841,0.477L1.851,0.488L0.355,2.056ZM1.830,0.467L1.841,0.477L0.355,2.056ZM1.817,0.457L1.830,0.467L0.355,2.056ZM1.817,0.454L1.817,0.457L0.355,2.056ZM1.817,0.454L0.355,2.056L0.265,1.843ZM1.817,0.454L0.265,1.843L0.246,1.793ZM1.817,0.454L0.246,1.793L1.182,0.856ZM1.817,0.214L1.817,0.454L1.182,0.856ZM1.816,0.203L1.817,0.214L1.182,0.856ZM1.814,0.192L1.816,0.203L1.182,0.856ZM1.814,0.192L1.182,0.856L1.177,0.823ZM1.812,0.183L1.814,0.192L1.177,0.823ZM1.808,0.174L1.812,0.183L1.177,0.823ZM1.803,0.165L1.808,0.174L1.177,0.823ZM1.803,0.165L1.177,0.823L1.173,0.787ZM1.797,0.158L1.803,0.165L1.173,0.787ZM1.790,0.151L1.797,0.158L1.173,0.787ZM1.790,0.151L1.173,0.787L1.171,0.762ZM1.783,0.145L1.790,0.151L1.171,0.762ZM1.775,0.139L1.783,0.145L1.171,0.762ZM1.775,0.139L1.171,0.762L1.171,0.739ZM1.767,0.135L1.775,0.139L1.171,0.739ZM1.767,0.135L1.171,0.739L1.171,0.719ZM1.758,0.131L1.767,0.135L1.171,0.719ZM1.758,0.131L1.171,0.719L1.173,0.702ZM1.746,0.127L1.758,0.131L1.173,0.702ZM1.746,0.127L1.173,0.702L1.175,0.685ZM1.733,0.124L1.746,0.127L1.175,0.685ZM1.733,0.124L1.175,0.685L1.178,0.668ZM1.720,0.122L1.733,0.124L1.178,0.668ZM1.720,0.122L1.178,0.668L1.182,0.654ZM1.707,0.122L1.720,0.122L1.182,0.654ZM1.707,0.122L1.182,0.654L1.187,0.640ZM1.707,0.122L1.187,0.640L1.192,0.626ZM1.693,0.123L1.707,0.122L1.192,0.626ZM1.693,0.123L1.192,0.626L1.199,0.613ZM1.693,0.123L1.199,0.613L1.200,0.610ZM1.679,0.125L1.693,0.123L1.200,0.610ZM1.666,0.128L1.679,0.125L1.200,0.610ZM1.655,0.132L1.666,0.128L1.200,0.610ZM1.655,0.132L1.200,0.610L1.205,0.577ZM1.645,0.136L1.655,0.132L1.205,0.577ZM1.635,0.142L1.645,0.136L1.205,0.577ZM1.625,0.148L1.635,0.142L1.205,0.577ZM1.614,0.156L1.625,0.148L1.205,0.577ZM1.612,0.153L1.614,0.156L1.205,0.577ZM1.612,0.153L1.205,0.577L1.209,0.549ZM1.605,0.144L1.612,0.153L1.209,0.549ZM1.605,0.144L1.209,0.549L1.215,0.520ZM1.598,0.136L1.605,0.144L1.215,0.520ZM1.591,0.129L1.598,0.136L1.215,0.520ZM1.591,0.129L1.215,0.520L1.221,0.492ZM1.583,0.123L1.591,0.129L1.221,0.492ZM1.575,0.119L1.583,0.123L1.221,0.492ZM1.575,0.119L1.221,0.492L1.229,0.463ZM1.566,0.115L1.575,0.119L1.229,0.463ZM1.566,0.115L1.229,0.463L1.237,0.437ZM1.557,0.112L1.566,0.115L1.237,0.437ZM1.548,0.110L1.557,0.112L1.237,0.437ZM1.548,0.110L1.237,0.437L1.245,0.412ZM1.539,0.109L1.548,0.110L1.245,0.412ZM1.539,0.109L1.245,0.412L1.255,0.387ZM1.529,0.109L1.539,0.109L1.255,0.387ZM1.529,0.109L1.255,0.387L1.265,0.363ZM1.516,0.111L1.529,0.109L1.265,0.363ZM1.516,0.111L1.265,0.363L1.275,0.341ZM1.503,0.114L1.516,0.111L1.275,0.341ZM1.489,0.118L1.503,0.114L1.275,0.341ZM1.489,0.118L1.275,0.341L1.286,0.321ZM1.475,0.124L1.489,0.118L1.286,0.321ZM1.475,0.124L1.286,0.321L1.298,0.301ZM1.461,0.131L1.475,0.124L1.298,0.301ZM1.447,0.139L1.461,0.131L1.298,0.301ZM1.447,0.139L1.298,0.301L1.321,0.265ZM1.433,0.148L1.447,0.139L1.321,0.265ZM1.433,0.148L1.321,0.265L1.337,0.243ZM1.419,0.159L1.433,0.148L1.337,0.243ZM1.419,0.159L1.337,0.243L1.353,0.223ZM1.404,0.171L1.419,0.159L1.353,0.223ZM1.404,0.171L1.353,0.223L1.370,0.204ZM1.370,0.204L1.387,0.187L1.404,0.171ZM0.631,2.076L0.622,2.086L0.613,2.095ZM0.631,2.076L0.613,2.095L0.603,2.103ZM0.639,2.065L0.631,2.076L0.603,2.103ZM0.639,2.065L0.603,2.103L0.593,2.110ZM0.646,2.053L0.639,2.065L0.593,2.110ZM0.646,2.053L0.593,2.110L0.582,2.117ZM0.646,2.053L0.582,2.117L0.571,2.122ZM0.652,2.040L0.646,2.053L0.571,2.122ZM0.652,2.040L0.571,2.122L0.559,2.127ZM0.658,2.026L0.652,2.040L0.559,2.127ZM0.658,2.026L0.559,2.127L0.547,2.131ZM0.662,2.012L0.658,2.026L0.547,2.131ZM0.662,2.012L0.547,2.131L0.535,2.134ZM0.662,2.012L0.535,2.134L0.523,2.136ZM0.667,1.991L0.662,2.012L0.523,2.136ZM0.523,2.136L0.507,2.138L0.667,1.991ZM1.168,0.861L1.182,0.856L0.246,1.793ZM1.113,0.878L1.168,0.861L0.246,1.793ZM1.113,0.878L0.246,1.793L0.231,1.754ZM1.063,0.893L1.113,0.878L0.231,1.754ZM1.063,0.893L0.231,1.754L0.221,1.722ZM1.016,0.904L1.063,0.893L0.221,1.722ZM1.016,0.904L0.221,1.722L0.213,1.696ZM0.973,0.914L1.016,0.904L0.213,1.696ZM0.973,0.914L0.213,1.696L0.208,1.675ZM0.973,0.914L0.208,1.675L0.205,1.657ZM0.933,0.921L0.973,0.914L0.205,1.657ZM0.933,0.921L0.205,1.657L0.204,1.643ZM0.933,0.921L0.204,1.643L0.203,1.641ZM0.896,0.927L0.933,0.921L0.203,1.641ZM0.896,0.927L0.203,1.641L0.190,1.624ZM0.862,0.930L0.896,0.927L0.190,1.624ZM0.862,0.930L0.190,1.624L0.179,1.610ZM0.862,0.930L0.179,1.610L0.169,1.595ZM0.831,0.932L0.862,0.930L0.169,1.595ZM0.831,0.932L0.169,1.595L0.159,1.580ZM0.802,0.933L0.831,0.932L0.159,1.580ZM0.802,0.933L0.159,1.580L0.150,1.563ZM0.775,0.932L0.802,0.933L0.150,1.563ZM0.775,0.932L0.150,1.563L0.142,1.546ZM0.750,0.930L0.775,0.932L0.142,1.546ZM0.750,0.930L0.142,1.546L0.134,1.528ZM0.727,0.928L0.750,0.930L0.134,1.528ZM0.727,0.928L0.134,1.528L0.127,1.510ZM0.700,0.923L0.727,0.928L0.127,1.510ZM0.700,0.923L0.127,1.510L0.121,1.491ZM0.700,0.923L0.121,1.491L0.115,1.471ZM0.670,0.917L0.700,0.923L0.115,1.471ZM0.670,0.917L0.115,1.471L0.111,1.452ZM0.670,0.917L0.111,1.452L0.107,1.432ZM0.620,0.904L0.670,0.917L0.107,1.432ZM0.620,0.904L0.107,1.432L0.104,1.412ZM0.620,0.904L0.104,1.412L0.102,1.392ZM0.594,0.898L0.620,0.904L0.102,1.392ZM0.594,0.898L0.102,1.392L0.101,1.372ZM0.572,0.893L0.594,0.898L0.101,1.372ZM0.572,0.893L0.101,1.372L0.101,1.352ZM0.555,0.891L0.572,0.893L0.101,1.352ZM0.555,0.891L0.101,1.352L0.103,1.332ZM0.537,0.889L0.555,0.891L0.103,1.332ZM0.537,0.889L0.103,1.332L0.105,1.312ZM0.518,0.888L0.537,0.889L0.105,1.312ZM0.518,0.888L0.105,1.312L0.108,1.293ZM0.518,0.888L0.108,1.293L0.113,1.273ZM0.488,0.889L0.518,0.888L0.113,1.273ZM0.488,0.889L0.113,1.273L0.119,1.255ZM0.488,0.889L0.119,1.255L0.126,1.236ZM0.488,0.889L0.126,1.236L0.135,1.219ZM0.488,0.889L0.135,1.219L0.142,1.206ZM0.488,0.889L0.142,1.206L0.150,1.193ZM0.488,0.889L0.150,1.193L0.153,1.189ZM0.488,0.889L0.153,1.189L0.154,1.168ZM0.488,0.889L0.154,1.168L0.155,1.154ZM0.488,0.889L0.155,1.154L0.158,1.139ZM0.488,0.889L0.158,1.139L0.161,1.124ZM0.488,0.889L0.161,1.124L0.166,1.110ZM0.488,0.889L0.166,1.110L0.171,1.096ZM0.488,0.889L0.171,1.096L0.177,1.082ZM0.488,0.889L0.177,1.082L0.184,1.068ZM0.488,0.889L0.184,1.068L0.192,1.054ZM0.488,0.889L0.192,1.054L0.193,1.052ZM0.488,0.889L0.193,1.052L0.166,1.012ZM0.488,0.889L0.166,1.012L0.147,0.982ZM0.488,0.889L0.147,0.982L0.128,0.951ZM0.488,0.889L0.128,0.951L0.111,0.920ZM0.488,0.889L0.111,0.920L0.094,0.888ZM0.488,0.889L0.094,0.888L0.079,0.856ZM0.488,0.889L0.079,0.856L0.065,0.825ZM0.488,0.889L0.065,0.825L0.052,0.793ZM0.488,0.889L0.052,0.793L0.041,0.760ZM0.488,0.889L0.041,0.760L0.030,0.728ZM0.488,0.889L0.030,0.728L0.022,0.695ZM0.488,0.889L0.022,0.695L0.014,0.663ZM0.488,0.889L0.014,0.663L0.008,0.630ZM0.488,0.889L0.008,0.630L0.004,0.598ZM0.488,0.889L0.004,0.598L0.001,0.565ZM0.488,0.889L0.001,0.565L0.000,0.533ZM0.434,0.089L0.488,0.889L0.000,0.533ZM0.433,0.079L0.434,0.089L0.000,0.533ZM0.433,0.079L0.000,0.533L0.001,0.500ZM0.431,0.069L0.433,0.079L0.001,0.500ZM0.428,0.060L0.431,0.069L0.001,0.500ZM0.423,0.051L0.428,0.060L0.001,0.500ZM0.423,0.051L0.001,0.500L0.003,0.468ZM0.418,0.043L0.423,0.051L0.003,0.468ZM0.412,0.036L0.418,0.043L0.003,0.468ZM0.412,0.036L0.003,0.468L0.007,0.435ZM0.406,0.029L0.412,0.036L0.007,0.435ZM0.406,0.029L0.007,0.435L0.011,0.414ZM0.398,0.022L0.406,0.029L0.011,0.414ZM0.398,0.022L0.011,0.414L0.016,0.393ZM0.390,0.017L0.398,0.022L0.016,0.393ZM0.382,0.012L0.390,0.017L0.016,0.393ZM0.382,0.012L0.016,0.393L0.022,0.371ZM0.374,0.008L0.382,0.012L0.022,0.371ZM0.374,0.008L0.022,0.371L0.028,0.350ZM0.365,0.005L0.374,0.008L0.028,0.350ZM0.365,0.005L0.028,0.350L0.036,0.329ZM0.356,0.002L0.365,0.005L0.036,0.329ZM0.356,0.002L0.036,0.329L0.044,0.308ZM0.346,0.001L0.356,0.002L0.044,0.308ZM0.346,0.001L0.044,0.308L0.054,0.287ZM0.337,0.000L0.346,0.001L0.054,0.287ZM0.337,0.000L0.054,0.287L0.064,0.266ZM0.328,0.000L0.337,0.000L0.064,0.266ZM0.328,0.000L0.064,0.266L0.075,0.246ZM0.319,0.002L0.328,0.000L0.075,0.246ZM0.310,0.004L0.319,0.002L0.075,0.246ZM0.310,0.004L0.075,0.246L0.088,0.225ZM0.304,0.007L0.310,0.004L0.088,0.225ZM0.297,0.010L0.304,0.007L0.088,0.225ZM0.294,0.012L0.297,0.010L0.088,0.225ZM0.294,0.012L0.088,0.225L0.101,0.205ZM0.294,0.012L0.101,0.205L0.115,0.185ZM0.269,0.031L0.294,0.012L0.115,0.185ZM0.269,0.031L0.115,0.185L0.131,0.165ZM0.246,0.049L0.269,0.031L0.131,0.165ZM0.246,0.049L0.131,0.165L0.147,0.145ZM0.224,0.068L0.246,0.049L0.147,0.145ZM0.224,0.068L0.147,0.145L0.165,0.126ZM0.203,0.087L0.224,0.068L0.165,0.126ZM0.165,0.126L0.183,0.106L0.203,0.087Z" fill="#ffffff"/><path d="M1.508,0.504L1.716,0.536L1.714,0.536ZM1.510,0.501L1.716,0.536L1.508,0.504ZM1.529,0.453L1.716,0.536L1.510,0.501ZM1.541,0.424L1.716,0.536L1.529,0.453ZM1.552,0.399L1.716,0.536L1.541,0.424ZM1.563,0.378L1.716,0.536L1.552,0.399ZM1.563,0.378L1.716,0.221L1.716,0.536ZM1.573,0.360L1.716,0.221L1.563,0.378ZM1.583,0.343L1.716,0.221L1.573,0.360ZM1.583,0.343L1.687,0.239L1.716,0.221ZM1.594,0.326L1.687,0.239L1.583,0.343ZM1.594,0.326L1.670,0.250L1.687,0.239ZM1.605,0.313L1.670,0.250L1.594,0.326ZM1.605,0.313L1.655,0.262L1.670,0.250ZM1.616,0.300L1.655,0.262L1.605,0.313ZM1.616,0.300L1.641,0.274L1.655,0.262ZM1.641,0.274L1.616,0.300L1.628,0.287ZM1.596,2.039L1.606,2.029L1.601,2.035ZM1.591,2.044L1.606,2.029L1.596,2.039ZM1.591,2.044L1.610,2.023L1.606,2.029ZM1.585,2.047L1.610,2.023L1.591,2.044ZM1.585,2.047L1.613,2.017L1.610,2.023ZM1.579,2.050L1.613,2.017L1.585,2.047ZM1.579,2.050L1.616,2.010L1.613,2.017ZM1.572,2.052L1.616,2.010L1.579,2.050ZM1.572,2.052L1.618,2.003L1.616,2.010ZM1.565,2.054L1.618,2.003L1.572,2.052ZM1.565,2.054L1.619,1.996L1.618,2.003ZM1.558,2.055L1.619,1.996L1.565,2.054ZM1.555,2.055L1.619,1.996L1.558,2.055ZM1.555,2.055L1.619,1.988L1.619,1.996ZM1.548,2.054L1.619,1.988L1.555,2.055ZM1.541,2.053L1.619,1.988L1.548,2.054ZM1.534,2.051L1.619,1.988L1.541,2.053ZM1.528,2.048L1.619,1.988L1.534,2.051ZM1.522,2.045L1.619,1.988L1.528,2.048ZM1.516,2.041L1.619,1.988L1.522,2.045ZM1.511,2.036L1.619,1.988L1.516,2.041ZM1.506,2.031L1.619,1.988L1.511,2.036ZM1.502,2.025L1.619,1.988L1.506,2.031ZM1.499,2.019L1.619,1.988L1.502,2.025ZM1.496,2.012L1.619,1.988L1.499,2.019ZM1.494,2.005L1.619,1.988L1.496,2.012ZM1.492,1.998L1.619,1.988L1.494,2.005ZM1.491,1.991L1.619,1.988L1.492,1.998ZM1.491,1.988L1.619,1.988L1.491,1.991ZM1.491,1.988L1.619,1.595L1.619,1.988ZM1.491,1.988L1.619,1.593L1.619,1.595ZM1.491,1.988L1.619,1.585L1.619,1.593ZM1.491,1.988L1.617,1.578L1.619,1.585ZM1.491,1.988L1.615,1.571L1.617,1.578ZM1.491,1.988L1.612,1.564L1.615,1.571ZM1.491,1.988L1.609,1.558L1.612,1.564ZM1.491,1.988L1.605,1.552L1.609,1.558ZM1.491,1.988L1.600,1.547L1.605,1.552ZM1.491,1.988L1.595,1.543L1.600,1.547ZM1.491,1.988L1.589,1.538L1.595,1.543ZM1.491,1.988L1.583,1.535L1.589,1.538ZM1.491,1.988L1.577,1.532L1.583,1.535ZM1.491,1.988L1.570,1.530L1.577,1.532ZM1.491,1.988L1.563,1.529L1.570,1.530ZM1.491,1.595L1.563,1.529L1.491,1.988ZM1.491,1.595L1.555,1.529L1.563,1.529ZM1.491,1.595L1.553,1.529L1.555,1.529ZM1.492,1.587L1.553,1.529L1.491,1.595ZM1.492,1.587L1.546,1.529L1.553,1.529ZM1.493,1.580L1.546,1.529L1.492,1.587ZM1.493,1.580L1.539,1.531L1.546,1.529ZM1.495,1.573L1.539,1.531L1.493,1.580ZM1.495,1.573L1.532,1.533L1.539,1.531ZM1.498,1.566L1.532,1.533L1.495,1.573ZM1.498,1.566L1.526,1.536L1.532,1.533ZM1.501,1.560L1.526,1.536L1.498,1.566ZM1.501,1.560L1.520,1.540L1.526,1.536ZM1.505,1.554L1.520,1.540L1.501,1.560ZM1.505,1.554L1.514,1.544L1.520,1.540ZM1.514,1.544L1.505,1.554L1.509,1.549Z" fill="#ad5f15"/><path d="M0.556,2.005L0.561,1.992L0.559,1.999ZM0.553,2.011L0.561,1.992L0.556,2.005ZM0.553,2.011L0.563,1.985L0.561,1.992ZM0.548,2.017L0.563,1.985L0.553,2.011ZM0.548,2.017L0.563,1.978L0.563,1.985ZM0.544,2.022L0.563,1.978L0.548,2.017ZM0.544,2.022L0.563,1.971L0.563,1.978ZM0.538,2.027L0.563,1.971L0.544,2.022ZM0.538,2.027L0.563,1.964L0.563,1.971ZM0.532,2.031L0.563,1.964L0.538,2.027ZM0.532,2.031L0.561,1.957L0.563,1.964ZM0.526,2.034L0.561,1.957L0.532,2.031ZM0.524,2.035L0.561,1.957L0.526,2.034ZM0.524,2.035L0.558,1.949L0.561,1.957ZM0.517,2.037L0.558,1.949L0.524,2.035ZM0.510,2.039L0.558,1.949L0.517,2.037ZM0.503,2.039L0.558,1.949L0.510,2.039ZM0.496,2.039L0.558,1.949L0.503,2.039ZM0.489,2.038L0.558,1.949L0.496,2.039ZM0.482,2.037L0.558,1.949L0.489,2.038ZM0.476,2.034L0.558,1.949L0.482,2.037ZM0.469,2.031L0.558,1.949L0.476,2.034ZM0.463,2.027L0.558,1.949L0.469,2.031ZM0.458,2.023L0.558,1.949L0.463,2.027ZM0.453,2.018L0.558,1.949L0.458,2.023ZM0.448,2.012L0.558,1.949L0.453,2.018ZM0.444,2.006L0.558,1.949L0.448,2.012ZM0.441,1.999L0.558,1.949L0.444,2.006ZM0.440,1.997L0.558,1.949L0.441,1.999ZM0.440,1.997L0.426,1.620L0.558,1.949ZM0.440,1.997L0.425,1.618L0.426,1.620ZM0.440,1.997L0.421,1.611L0.425,1.618ZM0.440,1.997L0.417,1.605L0.421,1.611ZM0.440,1.997L0.413,1.600L0.417,1.605ZM0.440,1.997L0.408,1.595L0.413,1.600ZM0.440,1.997L0.402,1.590L0.408,1.595ZM0.440,1.997L0.396,1.586L0.402,1.590ZM0.440,1.997L0.390,1.583L0.396,1.586ZM0.440,1.997L0.383,1.581L0.390,1.583ZM0.440,1.997L0.377,1.579L0.383,1.581ZM0.440,1.997L0.370,1.578L0.377,1.579ZM0.440,1.997L0.363,1.578L0.370,1.578ZM0.440,1.997L0.356,1.579L0.363,1.578ZM0.440,1.997L0.349,1.580L0.356,1.579ZM0.307,1.668L0.349,1.580L0.440,1.997ZM0.307,1.668L0.342,1.583L0.349,1.580ZM0.307,1.668L0.340,1.583L0.342,1.583ZM0.305,1.661L0.340,1.583L0.307,1.668ZM0.305,1.661L0.333,1.587L0.340,1.583ZM0.303,1.654L0.333,1.587L0.305,1.661ZM0.303,1.654L0.327,1.591L0.333,1.587ZM0.302,1.646L0.327,1.591L0.303,1.654ZM0.302,1.646L0.322,1.595L0.327,1.591ZM0.302,1.639L0.322,1.595L0.302,1.646ZM0.302,1.639L0.317,1.600L0.322,1.595ZM0.303,1.632L0.317,1.600L0.302,1.639ZM0.303,1.632L0.313,1.606L0.317,1.600ZM0.304,1.625L0.313,1.606L0.303,1.632ZM0.304,1.625L0.309,1.612L0.313,1.606ZM0.309,1.612L0.304,1.625L0.307,1.618Z" fill="#ed9224"/><path d="M1.006,1.692L0.995,1.704L0.983,1.715ZM1.014,1.683L1.006,1.692L0.983,1.715ZM1.014,1.683L0.983,1.715L0.970,1.725ZM1.021,1.673L1.014,1.683L0.970,1.725ZM1.027,1.663L1.021,1.673L0.970,1.725ZM1.027,1.663L0.970,1.725L0.956,1.734ZM1.032,1.653L1.027,1.663L0.956,1.734ZM1.032,1.653L0.956,1.734L0.941,1.742ZM1.036,1.642L1.032,1.653L0.941,1.742ZM1.036,1.642L0.941,1.742L0.926,1.749ZM1.040,1.630L1.036,1.642L0.926,1.749ZM1.040,1.630L0.926,1.749L0.910,1.755ZM1.043,1.619L1.040,1.630L0.910,1.755ZM1.043,1.619L0.910,1.755L0.894,1.760ZM1.044,1.607L1.043,1.619L0.894,1.760ZM1.044,1.607L0.894,1.760L0.878,1.764ZM1.045,1.594L1.044,1.607L0.878,1.764ZM1.045,1.594L0.878,1.764L0.861,1.766ZM1.044,1.581L1.045,1.594L0.861,1.766ZM1.044,1.581L0.861,1.766L0.844,1.768ZM1.042,1.568L1.044,1.581L0.844,1.768ZM1.042,1.568L0.844,1.768L0.828,1.769ZM1.040,1.555L1.042,1.568L0.828,1.769ZM1.040,1.555L0.828,1.769L0.824,1.769ZM0.824,1.769L1.036,1.541L1.040,1.555ZM0.898,2.034L0.894,2.040L0.889,2.045ZM0.898,2.034L0.889,2.045L0.883,2.049ZM0.902,2.028L0.898,2.034L0.883,2.049ZM0.902,2.028L0.883,2.049L0.877,2.053ZM0.905,2.022L0.902,2.028L0.877,2.053ZM0.905,2.022L0.877,2.053L0.871,2.056ZM0.905,2.022L0.871,2.056L0.869,2.057ZM0.907,2.016L0.905,2.022L0.869,2.057ZM0.907,2.016L0.869,2.057L0.862,2.059ZM0.909,2.009L0.907,2.016L0.862,2.059ZM0.909,2.009L0.862,2.059L0.855,2.060ZM0.910,2.002L0.909,2.009L0.855,2.060ZM0.910,2.002L0.855,2.060L0.848,2.061ZM0.910,1.995L0.910,2.002L0.848,2.061ZM0.910,1.995L0.848,2.061L0.841,2.060ZM0.910,1.987L0.910,1.995L0.841,2.060ZM0.910,1.987L0.841,2.060L0.834,2.059ZM0.908,1.980L0.910,1.987L0.834,2.059ZM0.908,1.980L0.834,2.059L0.827,2.057ZM0.906,1.973L0.908,1.980L0.827,2.057ZM0.905,1.971L0.906,1.973L0.827,2.057ZM0.905,1.971L0.827,2.057L0.820,2.055ZM0.905,1.971L0.820,2.055L0.814,2.051ZM0.905,1.971L0.814,2.051L0.808,2.048ZM0.905,1.971L0.808,2.048L0.803,2.043ZM0.905,1.971L0.803,2.043L0.798,2.038ZM0.905,1.971L0.798,2.038L0.794,2.032ZM0.905,1.971L0.794,2.032L0.790,2.026ZM0.905,1.971L0.790,2.026L0.786,2.019ZM0.824,1.769L0.905,1.971L0.786,2.019ZM1.030,1.527L1.036,1.541L0.824,1.769ZM1.023,1.512L1.030,1.527L0.824,1.769ZM1.015,1.498L1.023,1.512L0.824,1.769ZM1.006,1.483L1.015,1.498L0.824,1.769ZM1.002,1.483L1.006,1.483L0.824,1.769ZM0.824,1.769L0.786,2.019L0.654,1.689ZM1.002,1.483L0.824,1.769L0.654,1.689ZM1.002,1.483L0.654,1.689L0.651,1.683ZM1.002,1.483L0.651,1.683L0.650,1.676ZM1.002,1.483L0.650,1.676L0.649,1.669ZM1.002,1.483L0.649,1.669L0.649,1.662ZM1.002,1.483L0.649,1.662L0.649,1.655ZM1.002,1.483L0.649,1.655L0.651,1.648ZM1.002,1.483L0.651,1.648L0.653,1.642ZM1.002,1.483L0.653,1.642L0.655,1.636ZM1.002,1.483L0.655,1.636L0.658,1.630ZM1.002,1.483L0.658,1.630L0.662,1.624ZM1.002,1.483L0.662,1.624L0.666,1.619ZM1.002,1.483L0.666,1.619L0.667,1.618ZM1.002,1.483L0.667,1.618L0.663,1.605ZM1.002,1.483L0.663,1.605L0.659,1.590ZM1.002,1.483L0.659,1.590L0.654,1.570ZM1.002,1.483L0.654,1.570L0.650,1.547ZM1.002,1.483L0.650,1.547L0.646,1.520ZM1.002,1.483L0.646,1.520L0.643,1.489ZM0.643,1.489L0.640,1.460L1.002,1.483Z" fill="#ad5f15"/><path d="M1.698,1.586L1.685,1.600L1.671,1.614ZM1.698,1.586L1.671,1.614L1.657,1.627ZM1.713,1.568L1.698,1.586L1.657,1.627ZM1.713,1.568L1.657,1.627L1.642,1.639ZM1.713,1.568L1.642,1.639L1.626,1.651ZM1.727,1.549L1.713,1.568L1.626,1.651ZM1.727,1.549L1.626,1.651L1.610,1.662ZM1.740,1.530L1.727,1.549L1.610,1.662ZM1.740,1.530L1.610,1.662L1.593,1.672ZM1.752,1.510L1.740,1.530L1.593,1.672ZM1.752,1.510L1.593,1.672L1.576,1.682ZM1.752,1.510L1.576,1.682L1.558,1.691ZM1.766,1.481L1.752,1.510L1.558,1.691ZM1.766,1.481L1.558,1.691L1.539,1.699ZM1.774,1.463L1.766,1.481L1.539,1.699ZM1.774,1.463L1.539,1.699L1.520,1.706ZM1.781,1.443L1.774,1.463L1.520,1.706ZM1.781,1.443L1.520,1.706L1.500,1.712ZM1.787,1.422L1.781,1.443L1.500,1.712ZM1.787,1.422L1.500,1.712L1.480,1.718ZM1.792,1.400L1.787,1.422L1.480,1.718ZM1.792,1.400L1.480,1.718L1.459,1.722ZM1.798,1.371L1.792,1.400L1.459,1.722ZM1.798,1.371L1.459,1.722L1.437,1.726ZM1.803,1.342L1.798,1.371L1.437,1.726ZM1.803,1.342L1.437,1.726L1.416,1.728ZM1.803,1.342L1.416,1.728L1.393,1.729ZM1.807,1.311L1.803,1.342L1.393,1.729ZM1.807,1.311L1.393,1.729L1.370,1.730ZM1.807,1.311L1.370,1.730L1.364,1.730ZM1.364,1.730L1.810,1.280L1.807,1.311ZM1.350,2.031L1.345,2.036L1.340,2.041ZM1.350,2.031L1.340,2.041L1.334,2.045ZM1.354,2.025L1.350,2.031L1.334,2.045ZM1.354,2.025L1.334,2.045L1.328,2.048ZM1.357,2.019L1.354,2.025L1.328,2.048ZM1.357,2.019L1.328,2.048L1.322,2.051ZM1.360,2.012L1.357,2.019L1.322,2.051ZM1.360,2.012L1.322,2.051L1.315,2.053ZM1.362,2.005L1.360,2.012L1.315,2.053ZM1.362,2.005L1.315,2.053L1.308,2.054ZM1.364,1.998L1.362,2.005L1.308,2.054ZM1.364,1.998L1.308,2.054L1.300,2.055ZM1.364,1.991L1.364,1.998L1.300,2.055ZM1.364,1.991L1.300,2.055L1.298,2.055ZM1.364,1.988L1.364,1.991L1.298,2.055ZM1.364,1.988L1.298,2.055L1.291,2.054ZM1.364,1.988L1.291,2.054L1.284,2.052ZM1.364,1.988L1.284,2.052L1.277,2.050ZM1.364,1.988L1.277,2.050L1.271,2.047ZM1.364,1.988L1.271,2.047L1.265,2.044ZM1.364,1.988L1.265,2.044L1.259,2.039ZM1.364,1.988L1.259,2.039L1.254,2.035ZM1.364,1.988L1.254,2.035L1.250,2.029ZM1.364,1.988L1.250,2.029L1.246,2.023ZM1.364,1.988L1.246,2.023L1.243,2.017ZM1.364,1.988L1.243,2.017L1.240,2.010ZM1.364,1.988L1.240,2.010L1.238,2.003ZM1.364,1.988L1.238,2.003L1.237,1.996ZM1.364,1.988L1.237,1.996L1.236,1.988ZM1.364,1.730L1.364,1.988L1.236,1.988ZM1.812,1.243L1.810,1.280L1.364,1.730ZM1.814,1.206L1.812,1.243L1.364,1.730ZM1.814,1.171L1.814,1.206L1.364,1.730ZM1.364,1.730L1.236,1.988L1.236,1.712ZM1.814,1.171L1.364,1.730L1.236,1.712ZM1.813,1.136L1.814,1.171L1.236,1.712ZM1.813,1.136L1.236,1.712L1.236,1.710ZM1.811,1.103L1.813,1.136L1.236,1.710ZM1.811,1.103L1.236,1.710L1.186,1.697ZM1.808,1.073L1.811,1.103L1.186,1.697ZM1.805,1.046L1.808,1.073L1.186,1.697ZM1.805,1.046L1.186,1.697L1.153,1.688ZM1.801,1.026L1.805,1.046L1.153,1.688ZM1.798,1.009L1.801,1.026L1.153,1.688ZM1.794,0.998L1.798,1.009L1.153,1.688ZM1.794,0.998L1.153,1.688L1.112,1.675ZM1.791,0.988L1.794,0.998L1.112,1.675ZM1.788,0.983L1.791,0.988L1.112,1.675ZM1.787,0.981L1.788,0.983L1.112,1.675ZM1.112,1.675L1.073,1.662L1.787,0.981ZM2.047,0.877L2.037,0.887L2.026,0.896ZM2.056,0.866L2.047,0.877L2.026,0.896ZM2.056,0.866L2.026,0.896L2.015,0.905ZM2.065,0.854L2.056,0.866L2.015,0.905ZM2.065,0.854L2.015,0.905L2.000,0.915ZM2.072,0.841L2.065,0.854L2.000,0.915ZM2.072,0.841L2.000,0.915L1.984,0.925ZM2.079,0.828L2.072,0.841L1.984,0.925ZM2.079,0.828L1.984,0.925L1.967,0.933ZM2.085,0.813L2.079,0.828L1.967,0.933ZM2.085,0.813L1.967,0.933L1.950,0.940ZM2.090,0.798L2.085,0.813L1.950,0.940ZM2.090,0.798L1.950,0.940L1.933,0.947ZM2.094,0.781L2.090,0.798L1.933,0.947ZM2.094,0.781L1.933,0.947L1.911,0.953ZM2.097,0.763L2.094,0.781L1.911,0.953ZM2.097,0.763L1.911,0.953L1.889,0.959ZM2.098,0.745L2.097,0.763L1.889,0.959ZM2.098,0.745L1.889,0.959L1.864,0.965ZM2.098,0.725L2.098,0.745L1.864,0.965ZM2.098,0.725L1.864,0.965L1.837,0.971ZM2.097,0.704L2.098,0.725L1.837,0.971ZM2.095,0.704L2.097,0.704L1.837,0.971ZM2.095,0.704L1.837,0.971L1.790,0.981ZM2.095,0.704L1.790,0.981L1.787,0.981ZM1.787,0.981L1.073,1.662L1.034,1.648ZM2.095,0.704L1.787,0.981L1.034,1.648ZM2.095,0.704L1.034,1.648L0.988,1.630ZM2.095,0.704L0.988,1.630L0.937,1.610ZM1.831,0.704L2.095,0.704L0.937,1.610ZM1.831,0.698L1.831,0.704L0.937,1.610ZM1.829,0.680L1.831,0.698L0.937,1.610ZM1.827,0.664L1.829,0.680L0.937,1.610ZM1.824,0.648L1.827,0.664L0.937,1.610ZM1.824,0.648L0.937,1.610L0.882,1.586ZM1.820,0.634L1.824,0.648L0.882,1.586ZM1.816,0.620L1.820,0.634L0.882,1.586ZM1.810,0.606L1.816,0.620L0.882,1.586ZM1.805,0.594L1.810,0.606L0.882,1.586ZM1.796,0.579L1.805,0.594L0.882,1.586ZM1.786,0.565L1.796,0.579L0.882,1.586ZM1.786,0.565L0.882,1.586L0.792,1.548ZM1.776,0.552L1.786,0.565L0.792,1.548ZM1.765,0.540L1.776,0.552L0.792,1.548ZM1.753,0.529L1.765,0.540L0.792,1.548ZM1.753,0.529L0.792,1.548L0.746,1.529ZM1.741,0.520L1.753,0.529L0.746,1.529ZM1.729,0.511L1.741,0.520L0.746,1.529ZM1.729,0.511L0.746,1.529L0.713,1.517ZM1.729,0.511L0.713,1.517L1.312,0.912ZM1.713,0.502L1.729,0.511L1.312,0.912ZM1.698,0.494L1.713,0.502L1.312,0.912ZM1.698,0.494L1.312,0.912L1.298,0.882ZM1.683,0.487L1.698,0.494L1.298,0.882ZM1.683,0.487L1.298,0.882L1.290,0.861ZM1.665,0.481L1.683,0.487L1.290,0.861ZM1.665,0.481L1.290,0.861L1.284,0.841ZM1.648,0.476L1.665,0.481L1.284,0.841ZM1.633,0.473L1.648,0.476L1.284,0.841ZM1.633,0.473L1.284,0.841L1.279,0.822ZM1.617,0.470L1.633,0.473L1.279,0.822ZM1.617,0.470L1.279,0.822L1.275,0.803ZM1.602,0.469L1.617,0.470L1.275,0.803ZM1.601,0.469L1.602,0.469L1.275,0.803ZM1.601,0.469L1.275,0.803L1.273,0.786ZM1.601,0.469L1.273,0.786L1.272,0.769ZM1.601,0.469L1.272,0.769L1.271,0.753ZM1.601,0.469L1.271,0.753L1.272,0.738ZM1.529,0.469L1.601,0.469L1.272,0.738ZM1.529,0.466L1.529,0.469L1.272,0.738ZM1.529,0.466L1.272,0.738L1.274,0.721ZM1.529,0.466L1.274,0.721L1.276,0.705ZM1.529,0.466L1.276,0.705L1.279,0.691ZM1.529,0.466L1.279,0.691L1.283,0.676ZM1.529,0.466L1.283,0.676L1.289,0.662ZM1.529,0.466L1.289,0.662L1.294,0.649ZM1.529,0.466L1.294,0.649L1.299,0.639ZM1.529,0.466L1.299,0.639L1.299,0.638ZM1.529,0.466L1.299,0.638L1.306,0.590ZM1.529,0.466L1.306,0.590L1.312,0.555ZM1.529,0.466L1.312,0.555L1.318,0.527ZM1.529,0.466L1.318,0.527L1.325,0.499ZM1.529,0.466L1.325,0.499L1.332,0.473ZM1.529,0.466L1.332,0.473L1.340,0.447ZM1.529,0.466L1.340,0.447L1.349,0.423ZM1.529,0.466L1.349,0.423L1.359,0.399ZM1.529,0.466L1.359,0.399L1.370,0.376ZM1.531,0.209L1.529,0.466L1.370,0.376ZM1.527,0.211L1.531,0.209L1.370,0.376ZM1.527,0.211L1.370,0.376L1.381,0.355ZM1.510,0.220L1.527,0.211L1.381,0.355ZM1.510,0.220L1.381,0.355L1.393,0.334ZM1.495,0.229L1.510,0.220L1.393,0.334ZM1.495,0.229L1.393,0.334L1.404,0.318ZM1.480,0.240L1.495,0.229L1.404,0.318ZM1.480,0.240L1.404,0.318L1.415,0.303ZM1.466,0.251L1.480,0.240L1.415,0.303ZM1.466,0.251L1.415,0.303L1.427,0.289ZM1.452,0.263L1.466,0.251L1.427,0.289ZM1.427,0.289L1.439,0.276L1.452,0.263ZM1.312,0.912L1.312,0.912L0.713,1.517ZM1.290,0.922L1.312,0.912L0.713,1.517ZM1.290,0.922L0.713,1.517L0.688,1.508ZM1.259,0.935L1.290,0.922L0.688,1.508ZM1.221,0.950L1.259,0.935L0.688,1.508ZM1.221,0.950L0.688,1.508L0.664,1.502ZM1.181,0.965L1.221,0.950L0.664,1.502ZM1.181,0.965L0.664,1.502L0.647,1.498ZM1.181,0.965L0.647,1.498L0.630,1.495ZM1.143,0.978L1.181,0.965L0.630,1.495ZM1.143,0.978L0.630,1.495L0.615,1.494ZM1.143,0.978L0.615,1.494L0.604,1.494ZM1.143,0.978L0.604,1.494L0.600,1.494ZM1.101,0.991L1.143,0.978L0.600,1.494ZM1.065,1.001L1.101,0.991L0.600,1.494ZM1.027,1.011L1.065,1.001L0.600,1.494ZM0.987,1.021L1.027,1.011L0.600,1.494ZM0.955,1.027L0.987,1.021L0.600,1.494ZM0.923,1.033L0.955,1.027L0.600,1.494ZM0.890,1.037L0.923,1.033L0.600,1.494ZM0.857,1.041L0.890,1.037L0.600,1.494ZM0.825,1.043L0.857,1.041L0.600,1.494ZM0.800,1.043L0.825,1.043L0.600,1.494ZM0.776,1.043L0.800,1.043L0.600,1.494ZM0.752,1.042L0.776,1.043L0.600,1.494ZM0.714,1.038L0.752,1.042L0.600,1.494ZM0.693,1.035L0.714,1.038L0.600,1.494ZM0.626,1.019L0.693,1.035L0.600,1.494ZM0.595,1.011L0.626,1.019L0.600,1.494ZM0.569,1.006L0.595,1.011L0.600,1.494ZM0.546,1.001L0.569,1.006L0.600,1.494ZM0.526,0.998L0.546,1.001L0.600,1.494ZM0.506,0.996L0.526,0.998L0.600,1.494ZM0.506,0.996L0.600,1.494L0.260,1.239ZM0.506,0.996L0.260,1.239L0.256,1.236ZM0.486,0.995L0.506,0.996L0.256,1.236ZM0.486,0.995L0.256,1.236L0.255,1.216ZM0.469,0.995L0.486,0.995L0.255,1.216ZM0.469,0.995L0.255,1.216L0.256,1.200ZM0.452,0.996L0.469,0.995L0.256,1.200ZM0.452,0.996L0.256,1.200L0.257,1.184ZM0.435,0.998L0.452,0.996L0.257,1.184ZM0.435,0.998L0.257,1.184L0.259,1.168ZM0.419,1.001L0.435,0.998L0.259,1.168ZM0.419,1.001L0.259,1.168L0.262,1.153ZM0.399,1.006L0.419,1.001L0.262,1.153ZM0.399,1.006L0.262,1.153L0.266,1.138ZM0.399,0.997L0.399,1.006L0.266,1.138ZM0.399,0.997L0.266,1.138L0.270,1.125ZM0.399,0.997L0.270,1.125L0.276,1.112ZM0.399,0.997L0.276,1.112L0.282,1.100ZM0.399,0.997L0.282,1.100L0.289,1.089ZM0.399,0.997L0.289,1.089L0.296,1.077ZM0.399,0.997L0.296,1.077L0.305,1.067ZM0.399,0.997L0.305,1.067L0.316,1.055ZM0.399,0.997L0.316,1.055L0.271,0.989ZM0.386,0.871L0.399,0.997L0.271,0.989ZM0.386,0.871L0.271,0.989L0.243,0.945ZM0.386,0.871L0.243,0.945L0.224,0.913ZM0.375,0.761L0.386,0.871L0.224,0.913ZM0.375,0.761L0.224,0.913L0.206,0.881ZM0.375,0.761L0.206,0.881L0.190,0.850ZM0.367,0.660L0.375,0.761L0.190,0.850ZM0.367,0.660L0.190,0.850L0.174,0.819ZM0.367,0.660L0.174,0.819L0.160,0.789ZM0.359,0.567L0.367,0.660L0.160,0.789ZM0.359,0.567L0.160,0.789L0.148,0.759ZM0.359,0.567L0.148,0.759L0.137,0.729ZM0.353,0.475L0.359,0.567L0.137,0.729ZM0.353,0.475L0.137,0.729L0.127,0.699ZM0.353,0.475L0.127,0.699L0.119,0.670ZM0.353,0.475L0.119,0.670L0.112,0.641ZM0.348,0.393L0.353,0.475L0.112,0.641ZM0.348,0.393L0.112,0.641L0.107,0.612ZM0.348,0.393L0.107,0.612L0.103,0.584ZM0.348,0.393L0.103,0.584L0.101,0.555ZM0.344,0.311L0.348,0.393L0.101,0.555ZM0.344,0.311L0.101,0.555L0.101,0.528ZM0.344,0.311L0.101,0.528L0.102,0.500ZM0.342,0.240L0.344,0.311L0.102,0.500ZM0.342,0.240L0.102,0.500L0.105,0.472ZM0.342,0.240L0.105,0.472L0.110,0.445ZM0.342,0.240L0.110,0.445L0.116,0.418ZM0.342,0.240L0.116,0.418L0.124,0.391ZM0.340,0.169L0.342,0.240L0.124,0.391ZM0.340,0.169L0.124,0.391L0.134,0.364ZM0.340,0.169L0.134,0.364L0.146,0.337ZM0.340,0.169L0.146,0.337L0.159,0.310ZM0.340,0.169L0.159,0.310L0.175,0.284ZM0.340,0.169L0.175,0.284L0.192,0.257ZM0.340,0.169L0.192,0.257L0.212,0.231ZM0.339,0.100L0.340,0.169L0.212,0.231ZM0.339,0.100L0.212,0.231L0.233,0.205ZM0.310,0.126L0.339,0.100L0.233,0.205ZM0.310,0.126L0.233,0.205L0.257,0.179ZM0.257,0.179L0.282,0.153L0.310,0.126ZM0.305,1.067L0.314,1.056L0.316,1.055Z" fill="#ed9224"/><path d="M2.047,0.877L2.037,0.887L2.026,0.896ZM2.056,0.866L2.047,0.877L2.026,0.896ZM2.056,0.866L2.026,0.896L2.015,0.905ZM2.065,0.854L2.056,0.866L2.015,0.905ZM2.065,0.854L2.015,0.905L2.000,0.915ZM2.072,0.841L2.065,0.854L2.000,0.915ZM2.072,0.841L2.000,0.915L1.984,0.925ZM2.079,0.828L2.072,0.841L1.984,0.925ZM2.079,0.828L1.984,0.925L1.967,0.933ZM2.085,0.813L2.079,0.828L1.967,0.933ZM2.085,0.813L1.967,0.933L1.950,0.940ZM2.090,0.798L2.085,0.813L1.950,0.940ZM2.090,0.798L1.950,0.940L1.933,0.947ZM2.094,0.781L2.090,0.798L1.933,0.947ZM2.094,0.781L1.933,0.947L1.911,0.953ZM2.097,0.763L2.094,0.781L1.911,0.953ZM2.097,0.763L1.911,0.953L1.889,0.959ZM2.098,0.745L2.097,0.763L1.889,0.959ZM2.098,0.745L1.889,0.959L1.864,0.965ZM2.098,0.725L2.098,0.745L1.864,0.965ZM2.098,0.725L1.864,0.965L1.837,0.971ZM2.097,0.704L2.098,0.725L1.837,0.971ZM2.095,0.704L2.097,0.704L1.837,0.971ZM2.095,0.704L1.837,0.971L1.790,0.981ZM2.095,0.704L1.790,0.981L1.787,0.981ZM1.787,0.981L1.678,1.085L1.668,1.072ZM2.095,0.704L1.787,0.981L1.668,1.072ZM2.095,0.704L1.668,1.072L1.659,1.061ZM2.095,0.704L1.659,1.061L1.649,1.052ZM2.095,0.704L1.649,1.052L1.638,1.043ZM2.095,0.704L1.638,1.043L1.628,1.035ZM2.095,0.704L1.628,1.035L1.615,1.027ZM2.095,0.704L1.615,1.027L1.601,1.019ZM2.095,0.704L1.601,1.019L1.583,1.010ZM2.095,0.704L1.583,1.010L1.562,1.001ZM1.831,0.704L2.095,0.704L1.562,1.001ZM1.831,0.701L1.831,0.704L1.562,1.001ZM1.831,0.701L1.562,1.001L1.536,0.990ZM1.830,0.683L1.831,0.701L1.536,0.990ZM1.827,0.665L1.830,0.683L1.536,0.990ZM1.824,0.649L1.827,0.665L1.536,0.990ZM1.820,0.634L1.824,0.649L1.536,0.990ZM1.820,0.634L1.536,0.990L1.480,0.967ZM1.815,0.619L1.820,0.634L1.480,0.967ZM1.815,0.619L1.480,0.967L1.460,0.956ZM1.810,0.606L1.815,0.619L1.460,0.956ZM1.804,0.593L1.810,0.606L1.460,0.956ZM1.804,0.593L1.460,0.956L1.443,0.947ZM1.797,0.581L1.804,0.593L1.443,0.947ZM1.797,0.581L1.443,0.947L1.430,0.938ZM1.790,0.570L1.797,0.581L1.430,0.938ZM1.790,0.570L1.430,0.938L1.418,0.929ZM1.781,0.557L1.790,0.570L1.418,0.929ZM1.781,0.557L1.418,0.929L1.409,0.921ZM1.771,0.546L1.781,0.557L1.409,0.921ZM1.771,0.546L1.409,0.921L1.401,0.912ZM1.761,0.536L1.771,0.546L1.401,0.912ZM1.761,0.536L1.401,0.912L1.393,0.902ZM1.761,0.536L1.393,0.902L1.387,0.892ZM1.750,0.527L1.761,0.536L1.387,0.892ZM1.750,0.527L1.387,0.892L1.381,0.881ZM1.738,0.517L1.750,0.527L1.381,0.881ZM1.738,0.517L1.381,0.881L1.377,0.869ZM1.723,0.508L1.738,0.517L1.377,0.869ZM1.723,0.507L1.723,0.508L1.377,0.869ZM1.723,0.507L1.377,0.869L1.372,0.851ZM1.707,0.503L1.723,0.507L1.372,0.851ZM1.707,0.503L1.372,0.851L1.369,0.837ZM1.692,0.500L1.707,0.503L1.369,0.837ZM1.692,0.500L1.369,0.837L1.367,0.825ZM1.692,0.500L1.367,0.825L1.366,0.813ZM1.677,0.498L1.692,0.500L1.366,0.813ZM1.677,0.498L1.366,0.813L1.366,0.802ZM1.677,0.498L1.366,0.802L1.367,0.791ZM1.677,0.498L1.367,0.791L1.369,0.781ZM1.652,0.496L1.677,0.498L1.369,0.781ZM1.651,0.496L1.652,0.496L1.369,0.781ZM1.651,0.496L1.369,0.781L1.373,0.772ZM1.651,0.496L1.373,0.772L1.376,0.763ZM1.651,0.496L1.376,0.763L1.462,0.676ZM1.651,0.496L1.462,0.676L1.464,0.674ZM1.651,0.496L1.464,0.674L1.470,0.666ZM1.651,0.496L1.470,0.666L1.475,0.658ZM1.637,0.496L1.651,0.496L1.475,0.658ZM1.637,0.496L1.475,0.658L1.481,0.648ZM1.637,0.496L1.481,0.648L1.486,0.636ZM1.624,0.497L1.637,0.496L1.486,0.636ZM1.624,0.497L1.486,0.636L1.493,0.621ZM1.611,0.499L1.624,0.497L1.493,0.621ZM1.599,0.501L1.611,0.499L1.493,0.621ZM1.599,0.501L1.493,0.621L1.507,0.586ZM1.588,0.505L1.599,0.501L1.507,0.586ZM1.578,0.509L1.588,0.505L1.507,0.586ZM1.578,0.509L1.507,0.586L1.515,0.571ZM1.568,0.514L1.578,0.509L1.515,0.571ZM1.568,0.514L1.515,0.571L1.522,0.559ZM1.560,0.519L1.568,0.514L1.522,0.559ZM1.560,0.519L1.522,0.559L1.529,0.549ZM1.552,0.525L1.560,0.519L1.529,0.549ZM1.552,0.525L1.529,0.549L1.537,0.539ZM1.537,0.539L1.544,0.531L1.552,0.525ZM1.812,1.251L1.812,1.255L1.796,1.246ZM1.813,1.218L1.812,1.251L1.796,1.246ZM1.813,1.218L1.796,1.246L1.787,1.240ZM1.813,1.218L1.787,1.240L1.778,1.233ZM1.814,1.185L1.813,1.218L1.778,1.233ZM1.814,1.185L1.778,1.233L1.768,1.224ZM1.814,1.185L1.768,1.224L1.759,1.214ZM1.813,1.150L1.814,1.185L1.759,1.214ZM1.813,1.150L1.759,1.214L1.751,1.203ZM1.813,1.150L1.751,1.203L1.741,1.190ZM1.812,1.117L1.813,1.150L1.741,1.190ZM1.812,1.117L1.741,1.190L1.732,1.176ZM1.809,1.086L1.812,1.117L1.732,1.176ZM1.809,1.086L1.732,1.176L1.721,1.157ZM1.807,1.060L1.809,1.086L1.721,1.157ZM1.803,1.037L1.807,1.060L1.721,1.157ZM1.803,1.037L1.721,1.157L1.705,1.127ZM1.800,1.019L1.803,1.037L1.705,1.127ZM1.796,1.004L1.800,1.019L1.705,1.127ZM1.796,1.004L1.705,1.127L1.689,1.101ZM1.793,0.993L1.796,1.004L1.689,1.101ZM1.789,0.985L1.793,0.993L1.689,1.101ZM1.787,0.981L1.789,0.985L1.689,1.101ZM1.689,1.101L1.678,1.085L1.787,0.981ZM1.462,0.676L1.376,0.763L1.381,0.755ZM1.433,0.700L1.462,0.676L1.381,0.755ZM1.433,0.700L1.381,0.755L1.388,0.745ZM1.417,0.714L1.433,0.700L1.388,0.745ZM1.417,0.714L1.388,0.745L1.396,0.736ZM1.396,0.736L1.406,0.725L1.417,0.714ZM0.644,1.689L0.663,1.671L0.653,1.681ZM0.644,1.689L0.671,1.661L0.663,1.671ZM0.631,1.699L0.671,1.661L0.644,1.689ZM0.631,1.699L0.679,1.650L0.671,1.661ZM0.631,1.699L0.686,1.638L0.679,1.650ZM0.617,1.707L0.686,1.638L0.631,1.699ZM0.603,1.715L0.686,1.638L0.617,1.707ZM0.603,1.715L0.693,1.625L0.686,1.638ZM0.589,1.721L0.693,1.625L0.603,1.715ZM0.589,1.721L0.698,1.612L0.693,1.625ZM0.589,1.721L0.702,1.597L0.698,1.612ZM0.567,1.730L0.702,1.597L0.589,1.721ZM0.567,1.730L0.705,1.581L0.702,1.597ZM0.551,1.735L0.705,1.581L0.567,1.730ZM0.536,1.738L0.705,1.581L0.551,1.735ZM0.536,1.738L0.707,1.564L0.705,1.581ZM0.522,1.741L0.707,1.564L0.536,1.738ZM0.522,1.741L0.707,1.546L0.707,1.564ZM0.509,1.742L0.707,1.546L0.522,1.741ZM0.495,1.743L0.707,1.546L0.509,1.742ZM0.495,1.743L0.706,1.527L0.707,1.546ZM0.483,1.743L0.706,1.527L0.495,1.743ZM0.471,1.742L0.706,1.527L0.483,1.743ZM0.471,1.742L0.703,1.507L0.706,1.527ZM0.455,1.740L0.703,1.507L0.471,1.742ZM0.455,1.740L0.699,1.486L0.703,1.507ZM0.441,1.736L0.699,1.486L0.455,1.740ZM0.427,1.731L0.699,1.486L0.441,1.736ZM0.427,1.731L0.693,1.464L0.699,1.486ZM0.414,1.725L0.693,1.464L0.427,1.731ZM0.414,1.725L0.685,1.440L0.693,1.464ZM0.401,1.718L0.685,1.440L0.414,1.725ZM0.389,1.710L0.685,1.440L0.401,1.718ZM0.389,1.710L0.676,1.415L0.685,1.440ZM0.378,1.701L0.676,1.415L0.389,1.710ZM0.365,1.689L0.676,1.415L0.378,1.701ZM0.365,1.689L0.664,1.389L0.676,1.415ZM0.352,1.675L0.664,1.389L0.365,1.689ZM0.338,1.659L0.664,1.389L0.352,1.675ZM0.338,1.659L0.644,1.346L0.664,1.389ZM0.322,1.638L0.644,1.346L0.338,1.659ZM0.322,1.638L0.633,1.324L0.644,1.346ZM0.322,1.638L0.622,1.306L0.633,1.324ZM0.322,1.638L0.611,1.289L0.622,1.306ZM0.322,1.638L0.600,1.274L0.611,1.289ZM0.322,1.638L0.588,1.259L0.600,1.274ZM0.322,1.638L0.576,1.247L0.588,1.259ZM0.264,1.555L0.576,1.247L0.322,1.638ZM0.264,1.555L0.564,1.234L0.576,1.247ZM0.253,1.539L0.564,1.234L0.264,1.555ZM0.253,1.539L0.550,1.223L0.564,1.234ZM0.243,1.523L0.550,1.223L0.253,1.539ZM0.243,1.523L0.535,1.211L0.550,1.223ZM0.233,1.506L0.535,1.211L0.243,1.523ZM0.233,1.506L0.521,1.202L0.535,1.211ZM0.225,1.489L0.521,1.202L0.233,1.506ZM0.225,1.489L0.507,1.193L0.521,1.202ZM0.218,1.472L0.507,1.193L0.225,1.489ZM0.218,1.472L0.489,1.184L0.507,1.193ZM0.211,1.455L0.489,1.184L0.218,1.472ZM0.211,1.455L0.475,1.179L0.489,1.184ZM0.206,1.438L0.475,1.179L0.211,1.455ZM0.206,1.438L0.461,1.174L0.475,1.179ZM0.202,1.421L0.461,1.174L0.206,1.438ZM0.202,1.421L0.447,1.170L0.461,1.174ZM0.199,1.404L0.447,1.170L0.202,1.421ZM0.199,1.404L0.433,1.168L0.447,1.170ZM0.199,1.404L0.419,1.166L0.433,1.168ZM0.197,1.386L0.419,1.166L0.199,1.404ZM0.197,1.386L0.405,1.165L0.419,1.166ZM0.196,1.370L0.405,1.165L0.197,1.386ZM0.196,1.370L0.391,1.165L0.405,1.165ZM0.197,1.353L0.391,1.165L0.196,1.370ZM0.197,1.353L0.377,1.166L0.391,1.165ZM0.198,1.337L0.377,1.166L0.197,1.353ZM0.198,1.337L0.364,1.168L0.377,1.166ZM0.198,1.337L0.350,1.171L0.364,1.168ZM0.201,1.321L0.350,1.171L0.198,1.337ZM0.201,1.321L0.337,1.175L0.350,1.171ZM0.205,1.305L0.337,1.175L0.201,1.321ZM0.205,1.305L0.324,1.179L0.337,1.175ZM0.210,1.290L0.324,1.179L0.205,1.305ZM0.210,1.290L0.311,1.185L0.324,1.179ZM0.216,1.275L0.311,1.185L0.210,1.290ZM0.216,1.275L0.295,1.193L0.311,1.185ZM0.223,1.261L0.295,1.193L0.216,1.275ZM0.223,1.261L0.283,1.200L0.295,1.193ZM0.232,1.248L0.283,1.200L0.223,1.261ZM0.232,1.248L0.273,1.207L0.283,1.200ZM0.232,1.248L0.263,1.215L0.273,1.207ZM0.242,1.235L0.263,1.215L0.232,1.248ZM0.263,1.215L0.242,1.235L0.253,1.224Z" fill="#fec661"/></svg>